<svg xmlns="http://www.w3.org/2000/svg" xmlns:svg="http://www.w3.org/2000/svg" id="svg3007" width="48" height="48" version="1.1"><defs id="defs3009"><filter id="filter5333" width="1.332" height="1.06" x="-.166" y="-.03"><feGaussianBlur id="feGaussianBlur5335" stdDeviation=".479"/></filter></defs><metadata id="metadata3012"/><g id="layer1"><rect id="rect3783" width="46.163" height="45.599" x="1.034" y=".991" fill="#f0f0f0" fill-opacity="1" fill-rule="evenodd" stroke="gray" stroke-linecap="butt" stroke-linejoin="round" stroke-opacity="1" stroke-width="1"/><rect id="rect3787" width="2.821" height="2.782" x="4.231" y="4.094" fill="#404040" fill-opacity="1" stroke="none"/><rect id="rect5257" width="24.683" height="1.41" x="8.086" y="4.658" fill="#404040" fill-opacity="1" stroke="none"/><rect id="rect5259" width="2.821" height="2.782" x="8.462" y="8.419" fill="#404040" fill-opacity="1" stroke="none"/><rect id="rect5261" width="30.498" height="1.41" x="12.41" y="9.077" fill="#404040" fill-opacity="1" stroke="none"/><rect id="rect5263" width="2.821" height="2.782" x="8.462" y="13.307" fill="#404040" fill-opacity="1" stroke="none"/><rect id="rect5265" width="24.973" height="1.41" x="12.41" y="13.966" fill="#404040" fill-opacity="1" stroke="none"/><rect id="rect5267" width="2.821" height="2.782" x="4.325" y="17.444" fill="#404040" fill-opacity="1" stroke="none"/><rect id="rect5269" width="25.101" height="1.41" x="8.18" y="18.008" fill="#404040" fill-opacity="1" stroke="none"/><rect id="rect5271" width="2.821" height="2.782" x="8.556" y="21.769" fill="#404040" fill-opacity="1" stroke="none"/><rect id="rect5273" width="28.783" height="1.41" x="12.88" y="22.427" fill="#404040" fill-opacity="1" stroke="none"/><rect id="rect5275" width="2.821" height="2.782" x="13.475" y="26.658" fill="#404040" fill-opacity="1" stroke="none"/><rect id="rect5277" width="23.682" height="1.41" x="17.479" y="27.316" fill="#404040" fill-opacity="1" stroke="none"/><rect id="rect5279" width="2.821" height="2.782" x="8.513" y="31.006" fill="#404040" fill-opacity="1" stroke="none"/><rect id="rect5281" width="24.557" height="1.41" x="12.592" y="31.637" fill="#404040" fill-opacity="1" stroke="none"/><rect id="rect5283" width="2.821" height="2.782" x="13.475" y="35.464" fill="#404040" fill-opacity="1" stroke="none"/><rect id="rect5285" width="18.577" height="1.41" x="17.745" y="36.056" fill="#404040" fill-opacity="1" stroke="none"/><rect id="rect5287" width="2.821" height="2.782" x="13.542" y="40.353" fill="#404040" fill-opacity="1" stroke="none"/><rect id="rect5289" width="23.081" height="1.41" x="17.678" y="40.945" fill="#404040" fill-opacity="1" stroke="none"/></g></svg>